<?xml version="1.0" encoding="utf-8" standalone="no"?>
<!DOCTYPE svg PUBLIC "-//W3C//DTD SVG 1.1//EN"
  "http://www.w3.org/Graphics/SVG/1.1/DTD/svg11.dtd">
<svg xmlns:xlink="http://www.w3.org/1999/xlink" width="576pt" height="576pt" viewBox="0 0 576 576" xmlns="http://www.w3.org/2000/svg" version="1.1">
 <metadata>
  <rdf:RDF xmlns:dc="http://purl.org/dc/elements/1.1/" xmlns:cc="http://creativecommons.org/ns#" xmlns:rdf="http://www.w3.org/1999/02/22-rdf-syntax-ns#">
   <cc:Work>
    <dc:type rdf:resource="http://purl.org/dc/dcmitype/StillImage"/>
    <dc:date>2023-03-19T19:32:55.098339</dc:date>
    <dc:format>image/svg+xml</dc:format>
    <dc:creator>
     <cc:Agent>
      <dc:title>Matplotlib v3.7.0, https://matplotlib.org/</dc:title>
     </cc:Agent>
    </dc:creator>
   </cc:Work>
  </rdf:RDF>
 </metadata>
 <defs>
  <style type="text/css">*{stroke-linejoin: round; stroke-linecap: butt}</style>
 </defs>
 <g id="figure_1">
  <g id="patch_1">
   <path d="M 0 576 
L 576 576 
L 576 0 
L 0 0 
L 0 576 
z
" style="fill: none"/>
  </g>
  <g id="axes_1">
   <g id="patch_2">
    <path d="M 72 512.64 
L 518.4 512.64 
L 518.4 69.12 
L 72 69.12 
L 72 512.64 
z
" style="fill: none"/>
   </g>
   <g id="PathCollection_1">
    <defs>
     <path id="m1834b73597" d="M -0.5 0.5 
L 0.5 -0.5 
M -0.5 -0.5 
L 0.5 0.5 
" style="stroke: #449955; stroke-width: 1.5"/>
    </defs>
    <g clip-path="url(#p78d8c6ba80)">
     <use xlink:href="#m1834b73597" x="498.109091" y="94.803288" style="fill: #449955; stroke: #449955; stroke-width: 1.5"/>
     <use xlink:href="#m1834b73597" x="431.149091" y="161.08274" style="fill: #449955; stroke: #449955; stroke-width: 1.5"/>
     <use xlink:href="#m1834b73597" x="362.836364" y="227.362192" style="fill: #449955; stroke: #449955; stroke-width: 1.5"/>
     <use xlink:href="#m1834b73597" x="295.2" y="293.641644" style="fill: #449955; stroke: #449955; stroke-width: 1.5"/>
     <use xlink:href="#m1834b73597" x="226.887273" y="359.921096" style="fill: #449955; stroke: #449955; stroke-width: 1.5"/>
     <use xlink:href="#m1834b73597" x="157.221818" y="426.200548" style="fill: #449955; stroke: #449955; stroke-width: 1.5"/>
     <use xlink:href="#m1834b73597" x="92.290909" y="492.48" style="fill: #449955; stroke: #449955; stroke-width: 1.5"/>
    </g>
   </g>
   <g id="PathCollection_2">
    <defs>
     <path id="mdece70509a" d="M -0.49999 0.49999 
L 0.50001 0.49999 
L 0.50001 -0.50001 
L -0.49999 -0.50001 
z
" style="stroke: #445599"/>
    </defs>
    <g clip-path="url(#p78d8c6ba80)">
     <use xlink:href="#mdece70509a" x="92.290909" y="492.48" style="fill: #445599; stroke: #445599"/>
     <use xlink:href="#mdece70509a" x="159.927273" y="426.200548" style="fill: #445599; stroke: #445599"/>
     <use xlink:href="#mdece70509a" x="227.563636" y="359.921096" style="fill: #445599; stroke: #445599"/>
     <use xlink:href="#mdece70509a" x="295.2" y="293.641644" style="fill: #445599; stroke: #445599"/>
     <use xlink:href="#mdece70509a" x="362.836364" y="221.838904" style="fill: #445599; stroke: #445599"/>
     <use xlink:href="#mdece70509a" x="432.501818" y="155.559452" style="fill: #445599; stroke: #445599"/>
     <use xlink:href="#mdece70509a" x="498.109091" y="89.28" style="fill: #445599; stroke: #445599"/>
    </g>
   </g>
   <g id="matplotlib.axis_1">
    <g id="xtick_1">
     <g id="line2d_1">
      <defs>
       <path id="m45cf713d87" d="M 0 0 
L 0 3.5 
" style="stroke: #888888; stroke-opacity: 0.133333; stroke-width: 0.8"/>
      </defs>
      <g>
       <use xlink:href="#m45cf713d87" x="92.290909" y="512.64" style="fill: #888888; fill-opacity: 0.133333; stroke: #888888; stroke-opacity: 0.133333; stroke-width: 0.8"/>
      </g>
     </g>
     <g id="text_1">
      <!-- −300 -->
      <g style="fill: #888888; opacity: 0.133333" transform="translate(78.557315 527.238438) scale(0.1 -0.1)">
       <defs>
        <path id="DejaVuSans-2212" d="M 678 2272 
L 4684 2272 
L 4684 1741 
L 678 1741 
L 678 2272 
z
" transform="scale(0.015625)"/>
        <path id="DejaVuSans-33" d="M 2597 2516 
Q 3050 2419 3304 2112 
Q 3559 1806 3559 1356 
Q 3559 666 3084 287 
Q 2609 -91 1734 -91 
Q 1441 -91 1130 -33 
Q 819 25 488 141 
L 488 750 
Q 750 597 1062 519 
Q 1375 441 1716 441 
Q 2309 441 2620 675 
Q 2931 909 2931 1356 
Q 2931 1769 2642 2001 
Q 2353 2234 1838 2234 
L 1294 2234 
L 1294 2753 
L 1863 2753 
Q 2328 2753 2575 2939 
Q 2822 3125 2822 3475 
Q 2822 3834 2567 4026 
Q 2313 4219 1838 4219 
Q 1578 4219 1281 4162 
Q 984 4106 628 3988 
L 628 4550 
Q 988 4650 1302 4700 
Q 1616 4750 1894 4750 
Q 2613 4750 3031 4423 
Q 3450 4097 3450 3541 
Q 3450 3153 3228 2886 
Q 3006 2619 2597 2516 
z
" transform="scale(0.015625)"/>
        <path id="DejaVuSans-30" d="M 2034 4250 
Q 1547 4250 1301 3770 
Q 1056 3291 1056 2328 
Q 1056 1369 1301 889 
Q 1547 409 2034 409 
Q 2525 409 2770 889 
Q 3016 1369 3016 2328 
Q 3016 3291 2770 3770 
Q 2525 4250 2034 4250 
z
M 2034 4750 
Q 2819 4750 3233 4129 
Q 3647 3509 3647 2328 
Q 3647 1150 3233 529 
Q 2819 -91 2034 -91 
Q 1250 -91 836 529 
Q 422 1150 422 2328 
Q 422 3509 836 4129 
Q 1250 4750 2034 4750 
z
" transform="scale(0.015625)"/>
       </defs>
       <use xlink:href="#DejaVuSans-2212"/>
       <use xlink:href="#DejaVuSans-33" x="83.789062"/>
       <use xlink:href="#DejaVuSans-30" x="147.412109"/>
       <use xlink:href="#DejaVuSans-30" x="211.035156"/>
      </g>
     </g>
    </g>
    <g id="xtick_2">
     <g id="line2d_2">
      <g>
       <use xlink:href="#m45cf713d87" x="159.927273" y="512.64" style="fill: #888888; fill-opacity: 0.133333; stroke: #888888; stroke-opacity: 0.133333; stroke-width: 0.8"/>
      </g>
     </g>
     <g id="text_2">
      <!-- −200 -->
      <g style="fill: #888888; opacity: 0.133333" transform="translate(146.193679 527.238438) scale(0.1 -0.1)">
       <defs>
        <path id="DejaVuSans-32" d="M 1228 531 
L 3431 531 
L 3431 0 
L 469 0 
L 469 531 
Q 828 903 1448 1529 
Q 2069 2156 2228 2338 
Q 2531 2678 2651 2914 
Q 2772 3150 2772 3378 
Q 2772 3750 2511 3984 
Q 2250 4219 1831 4219 
Q 1534 4219 1204 4116 
Q 875 4013 500 3803 
L 500 4441 
Q 881 4594 1212 4672 
Q 1544 4750 1819 4750 
Q 2544 4750 2975 4387 
Q 3406 4025 3406 3419 
Q 3406 3131 3298 2873 
Q 3191 2616 2906 2266 
Q 2828 2175 2409 1742 
Q 1991 1309 1228 531 
z
" transform="scale(0.015625)"/>
       </defs>
       <use xlink:href="#DejaVuSans-2212"/>
       <use xlink:href="#DejaVuSans-32" x="83.789062"/>
       <use xlink:href="#DejaVuSans-30" x="147.412109"/>
       <use xlink:href="#DejaVuSans-30" x="211.035156"/>
      </g>
     </g>
    </g>
    <g id="xtick_3">
     <g id="line2d_3">
      <g>
       <use xlink:href="#m45cf713d87" x="227.563636" y="512.64" style="fill: #888888; fill-opacity: 0.133333; stroke: #888888; stroke-opacity: 0.133333; stroke-width: 0.8"/>
      </g>
     </g>
     <g id="text_3">
      <!-- −100 -->
      <g style="fill: #888888; opacity: 0.133333" transform="translate(213.830043 527.238438) scale(0.1 -0.1)">
       <defs>
        <path id="DejaVuSans-31" d="M 794 531 
L 1825 531 
L 1825 4091 
L 703 3866 
L 703 4441 
L 1819 4666 
L 2450 4666 
L 2450 531 
L 3481 531 
L 3481 0 
L 794 0 
L 794 531 
z
" transform="scale(0.015625)"/>
       </defs>
       <use xlink:href="#DejaVuSans-2212"/>
       <use xlink:href="#DejaVuSans-31" x="83.789062"/>
       <use xlink:href="#DejaVuSans-30" x="147.412109"/>
       <use xlink:href="#DejaVuSans-30" x="211.035156"/>
      </g>
     </g>
    </g>
    <g id="xtick_4">
     <g id="line2d_4">
      <g>
       <use xlink:href="#m45cf713d87" x="295.2" y="512.64" style="fill: #888888; fill-opacity: 0.133333; stroke: #888888; stroke-opacity: 0.133333; stroke-width: 0.8"/>
      </g>
     </g>
     <g id="text_4">
      <!-- 0 -->
      <g style="fill: #888888; opacity: 0.133333" transform="translate(292.01875 527.238438) scale(0.1 -0.1)">
       <use xlink:href="#DejaVuSans-30"/>
      </g>
     </g>
    </g>
    <g id="xtick_5">
     <g id="line2d_5">
      <g>
       <use xlink:href="#m45cf713d87" x="362.836364" y="512.64" style="fill: #888888; fill-opacity: 0.133333; stroke: #888888; stroke-opacity: 0.133333; stroke-width: 0.8"/>
      </g>
     </g>
     <g id="text_5">
      <!-- 100 -->
      <g style="fill: #888888; opacity: 0.133333" transform="translate(353.292614 527.238438) scale(0.1 -0.1)">
       <use xlink:href="#DejaVuSans-31"/>
       <use xlink:href="#DejaVuSans-30" x="63.623047"/>
       <use xlink:href="#DejaVuSans-30" x="127.246094"/>
      </g>
     </g>
    </g>
    <g id="xtick_6">
     <g id="line2d_6">
      <g>
       <use xlink:href="#m45cf713d87" x="430.472727" y="512.64" style="fill: #888888; fill-opacity: 0.133333; stroke: #888888; stroke-opacity: 0.133333; stroke-width: 0.8"/>
      </g>
     </g>
     <g id="text_6">
      <!-- 200 -->
      <g style="fill: #888888; opacity: 0.133333" transform="translate(420.928977 527.238438) scale(0.1 -0.1)">
       <use xlink:href="#DejaVuSans-32"/>
       <use xlink:href="#DejaVuSans-30" x="63.623047"/>
       <use xlink:href="#DejaVuSans-30" x="127.246094"/>
      </g>
     </g>
    </g>
    <g id="xtick_7">
     <g id="line2d_7">
      <g>
       <use xlink:href="#m45cf713d87" x="498.109091" y="512.64" style="fill: #888888; fill-opacity: 0.133333; stroke: #888888; stroke-opacity: 0.133333; stroke-width: 0.8"/>
      </g>
     </g>
     <g id="text_7">
      <!-- 300 -->
      <g style="fill: #888888; opacity: 0.133333" transform="translate(488.565341 527.238438) scale(0.1 -0.1)">
       <use xlink:href="#DejaVuSans-33"/>
       <use xlink:href="#DejaVuSans-30" x="63.623047"/>
       <use xlink:href="#DejaVuSans-30" x="127.246094"/>
      </g>
     </g>
    </g>
   </g>
   <g id="matplotlib.axis_2">
    <g id="ytick_1">
     <g id="line2d_8">
      <defs>
       <path id="mf7089719ba" d="M 0 0 
L -3.5 0 
" style="stroke: #888888; stroke-opacity: 0.133333; stroke-width: 0.8"/>
      </defs>
      <g>
       <use xlink:href="#mf7089719ba" x="72" y="475.910137" style="fill: #888888; fill-opacity: 0.133333; stroke: #888888; stroke-opacity: 0.133333; stroke-width: 0.8"/>
      </g>
     </g>
     <g id="text_8">
      <!-- 47 -->
      <g style="fill: #888888; opacity: 0.133333" transform="translate(52.275 479.709356) scale(0.1 -0.1)">
       <defs>
        <path id="DejaVuSans-34" d="M 2419 4116 
L 825 1625 
L 2419 1625 
L 2419 4116 
z
M 2253 4666 
L 3047 4666 
L 3047 1625 
L 3713 1625 
L 3713 1100 
L 3047 1100 
L 3047 0 
L 2419 0 
L 2419 1100 
L 313 1100 
L 313 1709 
L 2253 4666 
z
" transform="scale(0.015625)"/>
        <path id="DejaVuSans-37" d="M 525 4666 
L 3525 4666 
L 3525 4397 
L 1831 0 
L 1172 0 
L 2766 4134 
L 525 4134 
L 525 4666 
z
" transform="scale(0.015625)"/>
       </defs>
       <use xlink:href="#DejaVuSans-34"/>
       <use xlink:href="#DejaVuSans-37" x="63.623047"/>
      </g>
     </g>
    </g>
    <g id="ytick_2">
     <g id="line2d_9">
      <g>
       <use xlink:href="#mf7089719ba" x="72" y="420.67726" style="fill: #888888; fill-opacity: 0.133333; stroke: #888888; stroke-opacity: 0.133333; stroke-width: 0.8"/>
      </g>
     </g>
     <g id="text_9">
      <!-- 48 -->
      <g style="fill: #888888; opacity: 0.133333" transform="translate(52.275 424.476479) scale(0.1 -0.1)">
       <defs>
        <path id="DejaVuSans-38" d="M 2034 2216 
Q 1584 2216 1326 1975 
Q 1069 1734 1069 1313 
Q 1069 891 1326 650 
Q 1584 409 2034 409 
Q 2484 409 2743 651 
Q 3003 894 3003 1313 
Q 3003 1734 2745 1975 
Q 2488 2216 2034 2216 
z
M 1403 2484 
Q 997 2584 770 2862 
Q 544 3141 544 3541 
Q 544 4100 942 4425 
Q 1341 4750 2034 4750 
Q 2731 4750 3128 4425 
Q 3525 4100 3525 3541 
Q 3525 3141 3298 2862 
Q 3072 2584 2669 2484 
Q 3125 2378 3379 2068 
Q 3634 1759 3634 1313 
Q 3634 634 3220 271 
Q 2806 -91 2034 -91 
Q 1263 -91 848 271 
Q 434 634 434 1313 
Q 434 1759 690 2068 
Q 947 2378 1403 2484 
z
M 1172 3481 
Q 1172 3119 1398 2916 
Q 1625 2713 2034 2713 
Q 2441 2713 2670 2916 
Q 2900 3119 2900 3481 
Q 2900 3844 2670 4047 
Q 2441 4250 2034 4250 
Q 1625 4250 1398 4047 
Q 1172 3844 1172 3481 
z
" transform="scale(0.015625)"/>
       </defs>
       <use xlink:href="#DejaVuSans-34"/>
       <use xlink:href="#DejaVuSans-38" x="63.623047"/>
      </g>
     </g>
    </g>
    <g id="ytick_3">
     <g id="line2d_10">
      <g>
       <use xlink:href="#mf7089719ba" x="72" y="365.444384" style="fill: #888888; fill-opacity: 0.133333; stroke: #888888; stroke-opacity: 0.133333; stroke-width: 0.8"/>
      </g>
     </g>
     <g id="text_10">
      <!-- 49 -->
      <g style="fill: #888888; opacity: 0.133333" transform="translate(52.275 369.243602) scale(0.1 -0.1)">
       <defs>
        <path id="DejaVuSans-39" d="M 703 97 
L 703 672 
Q 941 559 1184 500 
Q 1428 441 1663 441 
Q 2288 441 2617 861 
Q 2947 1281 2994 2138 
Q 2813 1869 2534 1725 
Q 2256 1581 1919 1581 
Q 1219 1581 811 2004 
Q 403 2428 403 3163 
Q 403 3881 828 4315 
Q 1253 4750 1959 4750 
Q 2769 4750 3195 4129 
Q 3622 3509 3622 2328 
Q 3622 1225 3098 567 
Q 2575 -91 1691 -91 
Q 1453 -91 1209 -44 
Q 966 3 703 97 
z
M 1959 2075 
Q 2384 2075 2632 2365 
Q 2881 2656 2881 3163 
Q 2881 3666 2632 3958 
Q 2384 4250 1959 4250 
Q 1534 4250 1286 3958 
Q 1038 3666 1038 3163 
Q 1038 2656 1286 2365 
Q 1534 2075 1959 2075 
z
" transform="scale(0.015625)"/>
       </defs>
       <use xlink:href="#DejaVuSans-34"/>
       <use xlink:href="#DejaVuSans-39" x="63.623047"/>
      </g>
     </g>
    </g>
    <g id="ytick_4">
     <g id="line2d_11">
      <g>
       <use xlink:href="#mf7089719ba" x="72" y="310.211507" style="fill: #888888; fill-opacity: 0.133333; stroke: #888888; stroke-opacity: 0.133333; stroke-width: 0.8"/>
      </g>
     </g>
     <g id="text_11">
      <!-- 50 -->
      <g style="fill: #888888; opacity: 0.133333" transform="translate(52.275 314.010726) scale(0.1 -0.1)">
       <defs>
        <path id="DejaVuSans-35" d="M 691 4666 
L 3169 4666 
L 3169 4134 
L 1269 4134 
L 1269 2991 
Q 1406 3038 1543 3061 
Q 1681 3084 1819 3084 
Q 2600 3084 3056 2656 
Q 3513 2228 3513 1497 
Q 3513 744 3044 326 
Q 2575 -91 1722 -91 
Q 1428 -91 1123 -41 
Q 819 9 494 109 
L 494 744 
Q 775 591 1075 516 
Q 1375 441 1709 441 
Q 2250 441 2565 725 
Q 2881 1009 2881 1497 
Q 2881 1984 2565 2268 
Q 2250 2553 1709 2553 
Q 1456 2553 1204 2497 
Q 953 2441 691 2322 
L 691 4666 
z
" transform="scale(0.015625)"/>
       </defs>
       <use xlink:href="#DejaVuSans-35"/>
       <use xlink:href="#DejaVuSans-30" x="63.623047"/>
      </g>
     </g>
    </g>
    <g id="ytick_5">
     <g id="line2d_12">
      <g>
       <use xlink:href="#mf7089719ba" x="72" y="254.97863" style="fill: #888888; fill-opacity: 0.133333; stroke: #888888; stroke-opacity: 0.133333; stroke-width: 0.8"/>
      </g>
     </g>
     <g id="text_12">
      <!-- 51 -->
      <g style="fill: #888888; opacity: 0.133333" transform="translate(52.275 258.777849) scale(0.1 -0.1)">
       <use xlink:href="#DejaVuSans-35"/>
       <use xlink:href="#DejaVuSans-31" x="63.623047"/>
      </g>
     </g>
    </g>
    <g id="ytick_6">
     <g id="line2d_13">
      <g>
       <use xlink:href="#mf7089719ba" x="72" y="199.745753" style="fill: #888888; fill-opacity: 0.133333; stroke: #888888; stroke-opacity: 0.133333; stroke-width: 0.8"/>
      </g>
     </g>
     <g id="text_13">
      <!-- 52 -->
      <g style="fill: #888888; opacity: 0.133333" transform="translate(52.275 203.544972) scale(0.1 -0.1)">
       <use xlink:href="#DejaVuSans-35"/>
       <use xlink:href="#DejaVuSans-32" x="63.623047"/>
      </g>
     </g>
    </g>
    <g id="ytick_7">
     <g id="line2d_14">
      <g>
       <use xlink:href="#mf7089719ba" x="72" y="144.512877" style="fill: #888888; fill-opacity: 0.133333; stroke: #888888; stroke-opacity: 0.133333; stroke-width: 0.8"/>
      </g>
     </g>
     <g id="text_14">
      <!-- 53 -->
      <g style="fill: #888888; opacity: 0.133333" transform="translate(52.275 148.312095) scale(0.1 -0.1)">
       <use xlink:href="#DejaVuSans-35"/>
       <use xlink:href="#DejaVuSans-33" x="63.623047"/>
      </g>
     </g>
    </g>
    <g id="ytick_8">
     <g id="line2d_15">
      <g>
       <use xlink:href="#mf7089719ba" x="72" y="89.28" style="fill: #888888; fill-opacity: 0.133333; stroke: #888888; stroke-opacity: 0.133333; stroke-width: 0.8"/>
      </g>
     </g>
     <g id="text_15">
      <!-- 54 -->
      <g style="fill: #888888; opacity: 0.133333" transform="translate(52.275 93.079219) scale(0.1 -0.1)">
       <use xlink:href="#DejaVuSans-35"/>
       <use xlink:href="#DejaVuSans-34" x="63.623047"/>
      </g>
     </g>
    </g>
   </g>
   <g id="patch_3">
    <path d="M 72 512.64 
L 72 69.12 
" style="fill: none; stroke: #aaaaaa; stroke-opacity: 0.4; stroke-width: 0.8; stroke-linejoin: miter; stroke-linecap: square"/>
   </g>
   <g id="patch_4">
    <path d="M 518.4 512.64 
L 518.4 69.12 
" style="fill: none"/>
   </g>
   <g id="patch_5">
    <path d="M 72 512.64 
L 518.4 512.64 
" style="fill: none; stroke: #aaaaaa; stroke-opacity: 0.4; stroke-width: 0.8; stroke-linejoin: miter; stroke-linecap: square"/>
   </g>
   <g id="patch_6">
    <path d="M 72 69.12 
L 518.4 69.12 
" style="fill: none"/>
   </g>
  </g>
 </g>
 <defs>
  <clipPath id="p78d8c6ba80">
   <rect x="72" y="69.12" width="446.4" height="443.52"/>
  </clipPath>
 </defs>
</svg>
