<?xml version="1.0" encoding="utf-8" standalone="no"?>
<!DOCTYPE svg PUBLIC "-//W3C//DTD SVG 1.1//EN"
  "http://www.w3.org/Graphics/SVG/1.1/DTD/svg11.dtd">
<svg xmlns:xlink="http://www.w3.org/1999/xlink" width="460.8pt" height="345.6pt" viewBox="0 0 460.8 345.6" xmlns="http://www.w3.org/2000/svg" version="1.1">
 <metadata>
  <rdf:RDF xmlns:dc="http://purl.org/dc/elements/1.1/" xmlns:cc="http://creativecommons.org/ns#" xmlns:rdf="http://www.w3.org/1999/02/22-rdf-syntax-ns#">
   <cc:Work>
    <dc:type rdf:resource="http://purl.org/dc/dcmitype/StillImage"/>
    <dc:date>2023-03-19T15:21:11.811238</dc:date>
    <dc:format>image/svg+xml</dc:format>
    <dc:creator>
     <cc:Agent>
      <dc:title>Matplotlib v3.7.0, https://matplotlib.org/</dc:title>
     </cc:Agent>
    </dc:creator>
   </cc:Work>
  </rdf:RDF>
 </metadata>
 <defs>
  <style type="text/css">*{stroke-linejoin: round; stroke-linecap: butt}</style>
 </defs>
 <g id="figure_1">
  <g id="patch_1">
   <path d="M 0 345.6 
L 460.8 345.6 
L 460.8 0 
L 0 0 
z
" style="fill: #ffffff"/>
  </g>
  <g id="axes_1">
   <g id="patch_2">
    <path d="M 57.6 307.584 
L 414.72 307.584 
L 414.72 41.472 
L 57.6 41.472 
z
" style="fill: #ffffff"/>
   </g>
   <g id="PathCollection_1">
    <defs>
     <path id="ma0c3d0d7a7" d="M -0.5 0.5 
L 0.5 -0.5 
M -0.5 -0.5 
L 0.5 0.5 
" style="stroke: #555555; stroke-width: 1.5"/>
    </defs>
    <g clip-path="url(#p0b1b66dcb7)">
     <use xlink:href="#ma0c3d0d7a7" x="398.487273" y="295.488" style="fill: #555555; stroke: #555555; stroke-width: 1.5"/>
     <use xlink:href="#ma0c3d0d7a7" x="381.824539" y="292.96162" style="fill: #555555; stroke: #555555; stroke-width: 1.5"/>
     <use xlink:href="#ma0c3d0d7a7" x="365.699314" y="286.454278" style="fill: #555555; stroke: #555555; stroke-width: 1.5"/>
     <use xlink:href="#ma0c3d0d7a7" x="349.574088" y="270.606987" style="fill: #555555; stroke: #555555; stroke-width: 1.5"/>
     <use xlink:href="#ma0c3d0d7a7" x="333.448862" y="245.802532" style="fill: #555555; stroke: #555555; stroke-width: 1.5"/>
     <use xlink:href="#ma0c3d0d7a7" x="317.323636" y="216.634329" style="fill: #555555; stroke: #555555; stroke-width: 1.5"/>
     <use xlink:href="#ma0c3d0d7a7" x="301.198411" y="183.561722" style="fill: #555555; stroke: #555555; stroke-width: 1.5"/>
     <use xlink:href="#ma0c3d0d7a7" x="284.535677" y="149.187646" style="fill: #555555; stroke: #555555; stroke-width: 1.5"/>
     <use xlink:href="#ma0c3d0d7a7" x="268.410452" y="115.426025" style="fill: #555555; stroke: #555555; stroke-width: 1.5"/>
     <use xlink:href="#ma0c3d0d7a7" x="252.285226" y="84.497013" style="fill: #555555; stroke: #555555; stroke-width: 1.5"/>
     <use xlink:href="#ma0c3d0d7a7" x="236.16" y="53.568" style="fill: #555555; stroke: #555555; stroke-width: 1.5"/>
     <use xlink:href="#ma0c3d0d7a7" x="219.497267" y="76.075747" style="fill: #555555; stroke: #555555; stroke-width: 1.5"/>
     <use xlink:href="#ma0c3d0d7a7" x="203.909548" y="107.310987" style="fill: #555555; stroke: #555555; stroke-width: 1.5"/>
     <use xlink:href="#ma0c3d0d7a7" x="187.246815" y="141.378835" style="fill: #555555; stroke: #555555; stroke-width: 1.5"/>
     <use xlink:href="#ma0c3d0d7a7" x="171.659097" y="176.059139" style="fill: #555555; stroke: #555555; stroke-width: 1.5"/>
     <use xlink:href="#ma0c3d0d7a7" x="154.996364" y="214.796962" style="fill: #555555; stroke: #555555; stroke-width: 1.5"/>
     <use xlink:href="#ma0c3d0d7a7" x="138.871138" y="244.883848" style="fill: #555555; stroke: #555555; stroke-width: 1.5"/>
     <use xlink:href="#ma0c3d0d7a7" x="122.208405" y="271.449114" style="fill: #555555; stroke: #555555; stroke-width: 1.5"/>
     <use xlink:href="#ma0c3d0d7a7" x="106.083179" y="286.454278" style="fill: #555555; stroke: #555555; stroke-width: 1.5"/>
     <use xlink:href="#ma0c3d0d7a7" x="89.957953" y="292.96162" style="fill: #555555; stroke: #555555; stroke-width: 1.5"/>
     <use xlink:href="#ma0c3d0d7a7" x="73.832727" y="294.645873" style="fill: #555555; stroke: #555555; stroke-width: 1.5"/>
     <use xlink:href="#ma0c3d0d7a7" x="89.957953" y="293.803747" style="fill: #555555; stroke: #555555; stroke-width: 1.5"/>
     <use xlink:href="#ma0c3d0d7a7" x="106.083179" y="288.061975" style="fill: #555555; stroke: #555555; stroke-width: 1.5"/>
     <use xlink:href="#ma0c3d0d7a7" x="122.745912" y="274.741063" style="fill: #555555; stroke: #555555; stroke-width: 1.5"/>
     <use xlink:href="#ma0c3d0d7a7" x="138.871138" y="251.850532" style="fill: #555555; stroke: #555555; stroke-width: 1.5"/>
     <use xlink:href="#ma0c3d0d7a7" x="154.996364" y="222.912" style="fill: #555555; stroke: #555555; stroke-width: 1.5"/>
     <use xlink:href="#ma0c3d0d7a7" x="171.659097" y="191.982987" style="fill: #555555; stroke: #555555; stroke-width: 1.5"/>
     <use xlink:href="#ma0c3d0d7a7" x="187.784323" y="157.915139" style="fill: #555555; stroke: #555555; stroke-width: 1.5"/>
     <use xlink:href="#ma0c3d0d7a7" x="203.909548" y="122.469266" style="fill: #555555; stroke: #555555; stroke-width: 1.5"/>
     <use xlink:href="#ma0c3d0d7a7" x="220.034774" y="89.779443" style="fill: #555555; stroke: #555555; stroke-width: 1.5"/>
     <use xlink:href="#ma0c3d0d7a7" x="236.16" y="61.147139" style="fill: #555555; stroke: #555555; stroke-width: 1.5"/>
     <use xlink:href="#ma0c3d0d7a7" x="252.285226" y="69.721519" style="fill: #555555; stroke: #555555; stroke-width: 1.5"/>
     <use xlink:href="#ma0c3d0d7a7" x="268.947959" y="100.114633" style="fill: #555555; stroke: #555555; stroke-width: 1.5"/>
     <use xlink:href="#ma0c3d0d7a7" x="285.073185" y="134.488709" style="fill: #555555; stroke: #555555; stroke-width: 1.5"/>
     <use xlink:href="#ma0c3d0d7a7" x="301.198411" y="169.398684" style="fill: #555555; stroke: #555555; stroke-width: 1.5"/>
     <use xlink:href="#ma0c3d0d7a7" x="317.323636" y="203.925873" style="fill: #555555; stroke: #555555; stroke-width: 1.5"/>
     <use xlink:href="#ma0c3d0d7a7" x="333.448862" y="237.917165" style="fill: #555555; stroke: #555555; stroke-width: 1.5"/>
     <use xlink:href="#ma0c3d0d7a7" x="350.111595" y="267.238481" style="fill: #555555; stroke: #555555; stroke-width: 1.5"/>
     <use xlink:href="#ma0c3d0d7a7" x="365.699314" y="283.927899" style="fill: #555555; stroke: #555555; stroke-width: 1.5"/>
     <use xlink:href="#ma0c3d0d7a7" x="381.824539" y="292.196051" style="fill: #555555; stroke: #555555; stroke-width: 1.5"/>
     <use xlink:href="#ma0c3d0d7a7" x="398.487273" y="294.645873" style="fill: #555555; stroke: #555555; stroke-width: 1.5"/>
    </g>
   </g>
   <g id="matplotlib.axis_1">
    <g id="xtick_1">
     <g id="line2d_1">
      <defs>
       <path id="md5d4f998cf" d="M 0 0 
L 0 3.5 
" style="stroke: #888888; stroke-opacity: 0.133333; stroke-width: 0.8"/>
      </defs>
      <g>
       <use xlink:href="#md5d4f998cf" x="74.907742" y="307.584" style="fill: #888888; fill-opacity: 0.133333; stroke: #888888; stroke-opacity: 0.133333; stroke-width: 0.8"/>
      </g>
     </g>
     <g id="text_1">
      <!-- −30 -->
      <g style="fill: #888888; opacity: 0.133333" transform="translate(64.355399 322.182437) scale(0.1 -0.1)">
       <defs>
        <path id="DejaVuSans-2212" d="M 678 2272 
L 4684 2272 
L 4684 1741 
L 678 1741 
L 678 2272 
z
" transform="scale(0.015625)"/>
        <path id="DejaVuSans-33" d="M 2597 2516 
Q 3050 2419 3304 2112 
Q 3559 1806 3559 1356 
Q 3559 666 3084 287 
Q 2609 -91 1734 -91 
Q 1441 -91 1130 -33 
Q 819 25 488 141 
L 488 750 
Q 750 597 1062 519 
Q 1375 441 1716 441 
Q 2309 441 2620 675 
Q 2931 909 2931 1356 
Q 2931 1769 2642 2001 
Q 2353 2234 1838 2234 
L 1294 2234 
L 1294 2753 
L 1863 2753 
Q 2328 2753 2575 2939 
Q 2822 3125 2822 3475 
Q 2822 3834 2567 4026 
Q 2313 4219 1838 4219 
Q 1578 4219 1281 4162 
Q 984 4106 628 3988 
L 628 4550 
Q 988 4650 1302 4700 
Q 1616 4750 1894 4750 
Q 2613 4750 3031 4423 
Q 3450 4097 3450 3541 
Q 3450 3153 3228 2886 
Q 3006 2619 2597 2516 
z
" transform="scale(0.015625)"/>
        <path id="DejaVuSans-30" d="M 2034 4250 
Q 1547 4250 1301 3770 
Q 1056 3291 1056 2328 
Q 1056 1369 1301 889 
Q 1547 409 2034 409 
Q 2525 409 2770 889 
Q 3016 1369 3016 2328 
Q 3016 3291 2770 3770 
Q 2525 4250 2034 4250 
z
M 2034 4750 
Q 2819 4750 3233 4129 
Q 3647 3509 3647 2328 
Q 3647 1150 3233 529 
Q 2819 -91 2034 -91 
Q 1250 -91 836 529 
Q 422 1150 422 2328 
Q 422 3509 836 4129 
Q 1250 4750 2034 4750 
z
" transform="scale(0.015625)"/>
       </defs>
       <use xlink:href="#DejaVuSans-2212"/>
       <use xlink:href="#DejaVuSans-33" x="83.789062"/>
       <use xlink:href="#DejaVuSans-30" x="147.412109"/>
      </g>
     </g>
    </g>
    <g id="xtick_2">
     <g id="line2d_2">
      <g>
       <use xlink:href="#md5d4f998cf" x="128.658495" y="307.584" style="fill: #888888; fill-opacity: 0.133333; stroke: #888888; stroke-opacity: 0.133333; stroke-width: 0.8"/>
      </g>
     </g>
     <g id="text_2">
      <!-- −20 -->
      <g style="fill: #888888; opacity: 0.133333" transform="translate(118.106151 322.182437) scale(0.1 -0.1)">
       <defs>
        <path id="DejaVuSans-32" d="M 1228 531 
L 3431 531 
L 3431 0 
L 469 0 
L 469 531 
Q 828 903 1448 1529 
Q 2069 2156 2228 2338 
Q 2531 2678 2651 2914 
Q 2772 3150 2772 3378 
Q 2772 3750 2511 3984 
Q 2250 4219 1831 4219 
Q 1534 4219 1204 4116 
Q 875 4013 500 3803 
L 500 4441 
Q 881 4594 1212 4672 
Q 1544 4750 1819 4750 
Q 2544 4750 2975 4387 
Q 3406 4025 3406 3419 
Q 3406 3131 3298 2873 
Q 3191 2616 2906 2266 
Q 2828 2175 2409 1742 
Q 1991 1309 1228 531 
z
" transform="scale(0.015625)"/>
       </defs>
       <use xlink:href="#DejaVuSans-2212"/>
       <use xlink:href="#DejaVuSans-32" x="83.789062"/>
       <use xlink:href="#DejaVuSans-30" x="147.412109"/>
      </g>
     </g>
    </g>
    <g id="xtick_3">
     <g id="line2d_3">
      <g>
       <use xlink:href="#md5d4f998cf" x="182.409247" y="307.584" style="fill: #888888; fill-opacity: 0.133333; stroke: #888888; stroke-opacity: 0.133333; stroke-width: 0.8"/>
      </g>
     </g>
     <g id="text_3">
      <!-- −10 -->
      <g style="fill: #888888; opacity: 0.133333" transform="translate(171.856904 322.182437) scale(0.1 -0.1)">
       <defs>
        <path id="DejaVuSans-31" d="M 794 531 
L 1825 531 
L 1825 4091 
L 703 3866 
L 703 4441 
L 1819 4666 
L 2450 4666 
L 2450 531 
L 3481 531 
L 3481 0 
L 794 0 
L 794 531 
z
" transform="scale(0.015625)"/>
       </defs>
       <use xlink:href="#DejaVuSans-2212"/>
       <use xlink:href="#DejaVuSans-31" x="83.789062"/>
       <use xlink:href="#DejaVuSans-30" x="147.412109"/>
      </g>
     </g>
    </g>
    <g id="xtick_4">
     <g id="line2d_4">
      <g>
       <use xlink:href="#md5d4f998cf" x="236.16" y="307.584" style="fill: #888888; fill-opacity: 0.133333; stroke: #888888; stroke-opacity: 0.133333; stroke-width: 0.8"/>
      </g>
     </g>
     <g id="text_4">
      <!-- 0 -->
      <g style="fill: #888888; opacity: 0.133333" transform="translate(232.97875 322.182437) scale(0.1 -0.1)">
       <use xlink:href="#DejaVuSans-30"/>
      </g>
     </g>
    </g>
    <g id="xtick_5">
     <g id="line2d_5">
      <g>
       <use xlink:href="#md5d4f998cf" x="289.910753" y="307.584" style="fill: #888888; fill-opacity: 0.133333; stroke: #888888; stroke-opacity: 0.133333; stroke-width: 0.8"/>
      </g>
     </g>
     <g id="text_5">
      <!-- 10 -->
      <g style="fill: #888888; opacity: 0.133333" transform="translate(283.548253 322.182437) scale(0.1 -0.1)">
       <use xlink:href="#DejaVuSans-31"/>
       <use xlink:href="#DejaVuSans-30" x="63.623047"/>
      </g>
     </g>
    </g>
    <g id="xtick_6">
     <g id="line2d_6">
      <g>
       <use xlink:href="#md5d4f998cf" x="343.661505" y="307.584" style="fill: #888888; fill-opacity: 0.133333; stroke: #888888; stroke-opacity: 0.133333; stroke-width: 0.8"/>
      </g>
     </g>
     <g id="text_6">
      <!-- 20 -->
      <g style="fill: #888888; opacity: 0.133333" transform="translate(337.299005 322.182437) scale(0.1 -0.1)">
       <use xlink:href="#DejaVuSans-32"/>
       <use xlink:href="#DejaVuSans-30" x="63.623047"/>
      </g>
     </g>
    </g>
    <g id="xtick_7">
     <g id="line2d_7">
      <g>
       <use xlink:href="#md5d4f998cf" x="397.412258" y="307.584" style="fill: #888888; fill-opacity: 0.133333; stroke: #888888; stroke-opacity: 0.133333; stroke-width: 0.8"/>
      </g>
     </g>
     <g id="text_7">
      <!-- 30 -->
      <g style="fill: #888888; opacity: 0.133333" transform="translate(391.049758 322.182437) scale(0.1 -0.1)">
       <use xlink:href="#DejaVuSans-33"/>
       <use xlink:href="#DejaVuSans-30" x="63.623047"/>
      </g>
     </g>
    </g>
   </g>
   <g id="matplotlib.axis_2">
    <g id="ytick_1">
     <g id="line2d_8">
      <defs>
       <path id="m1a26dcbebe" d="M 0 0 
L -3.5 0 
" style="stroke: #888888; stroke-opacity: 0.133333; stroke-width: 0.8"/>
      </defs>
      <g>
       <use xlink:href="#m1a26dcbebe" x="57.6" y="306.971544" style="fill: #888888; fill-opacity: 0.133333; stroke: #888888; stroke-opacity: 0.133333; stroke-width: 0.8"/>
      </g>
     </g>
     <g id="text_8">
      <!-- 2050 -->
      <g style="fill: #888888; opacity: 0.133333" transform="translate(25.15 310.770763) scale(0.1 -0.1)">
       <defs>
        <path id="DejaVuSans-35" d="M 691 4666 
L 3169 4666 
L 3169 4134 
L 1269 4134 
L 1269 2991 
Q 1406 3038 1543 3061 
Q 1681 3084 1819 3084 
Q 2600 3084 3056 2656 
Q 3513 2228 3513 1497 
Q 3513 744 3044 326 
Q 2575 -91 1722 -91 
Q 1428 -91 1123 -41 
Q 819 9 494 109 
L 494 744 
Q 775 591 1075 516 
Q 1375 441 1709 441 
Q 2250 441 2565 725 
Q 2881 1009 2881 1497 
Q 2881 1984 2565 2268 
Q 2250 2553 1709 2553 
Q 1456 2553 1204 2497 
Q 953 2441 691 2322 
L 691 4666 
z
" transform="scale(0.015625)"/>
       </defs>
       <use xlink:href="#DejaVuSans-32"/>
       <use xlink:href="#DejaVuSans-30" x="63.623047"/>
       <use xlink:href="#DejaVuSans-35" x="127.246094"/>
       <use xlink:href="#DejaVuSans-30" x="190.869141"/>
      </g>
     </g>
    </g>
    <g id="ytick_2">
     <g id="line2d_9">
      <g>
       <use xlink:href="#m1a26dcbebe" x="57.6" y="268.693063" style="fill: #888888; fill-opacity: 0.133333; stroke: #888888; stroke-opacity: 0.133333; stroke-width: 0.8"/>
      </g>
     </g>
     <g id="text_9">
      <!-- 2100 -->
      <g style="fill: #888888; opacity: 0.133333" transform="translate(25.15 272.492282) scale(0.1 -0.1)">
       <use xlink:href="#DejaVuSans-32"/>
       <use xlink:href="#DejaVuSans-31" x="63.623047"/>
       <use xlink:href="#DejaVuSans-30" x="127.246094"/>
       <use xlink:href="#DejaVuSans-30" x="190.869141"/>
      </g>
     </g>
    </g>
    <g id="ytick_3">
     <g id="line2d_10">
      <g>
       <use xlink:href="#m1a26dcbebe" x="57.6" y="230.414582" style="fill: #888888; fill-opacity: 0.133333; stroke: #888888; stroke-opacity: 0.133333; stroke-width: 0.8"/>
      </g>
     </g>
     <g id="text_10">
      <!-- 2150 -->
      <g style="fill: #888888; opacity: 0.133333" transform="translate(25.15 234.213801) scale(0.1 -0.1)">
       <use xlink:href="#DejaVuSans-32"/>
       <use xlink:href="#DejaVuSans-31" x="63.623047"/>
       <use xlink:href="#DejaVuSans-35" x="127.246094"/>
       <use xlink:href="#DejaVuSans-30" x="190.869141"/>
      </g>
     </g>
    </g>
    <g id="ytick_4">
     <g id="line2d_11">
      <g>
       <use xlink:href="#m1a26dcbebe" x="57.6" y="192.136101" style="fill: #888888; fill-opacity: 0.133333; stroke: #888888; stroke-opacity: 0.133333; stroke-width: 0.8"/>
      </g>
     </g>
     <g id="text_11">
      <!-- 2200 -->
      <g style="fill: #888888; opacity: 0.133333" transform="translate(25.15 195.93532) scale(0.1 -0.1)">
       <use xlink:href="#DejaVuSans-32"/>
       <use xlink:href="#DejaVuSans-32" x="63.623047"/>
       <use xlink:href="#DejaVuSans-30" x="127.246094"/>
       <use xlink:href="#DejaVuSans-30" x="190.869141"/>
      </g>
     </g>
    </g>
    <g id="ytick_5">
     <g id="line2d_12">
      <g>
       <use xlink:href="#m1a26dcbebe" x="57.6" y="153.85762" style="fill: #888888; fill-opacity: 0.133333; stroke: #888888; stroke-opacity: 0.133333; stroke-width: 0.8"/>
      </g>
     </g>
     <g id="text_12">
      <!-- 2250 -->
      <g style="fill: #888888; opacity: 0.133333" transform="translate(25.15 157.656839) scale(0.1 -0.1)">
       <use xlink:href="#DejaVuSans-32"/>
       <use xlink:href="#DejaVuSans-32" x="63.623047"/>
       <use xlink:href="#DejaVuSans-35" x="127.246094"/>
       <use xlink:href="#DejaVuSans-30" x="190.869141"/>
      </g>
     </g>
    </g>
    <g id="ytick_6">
     <g id="line2d_13">
      <g>
       <use xlink:href="#m1a26dcbebe" x="57.6" y="115.579139" style="fill: #888888; fill-opacity: 0.133333; stroke: #888888; stroke-opacity: 0.133333; stroke-width: 0.8"/>
      </g>
     </g>
     <g id="text_13">
      <!-- 2300 -->
      <g style="fill: #888888; opacity: 0.133333" transform="translate(25.15 119.378358) scale(0.1 -0.1)">
       <use xlink:href="#DejaVuSans-32"/>
       <use xlink:href="#DejaVuSans-33" x="63.623047"/>
       <use xlink:href="#DejaVuSans-30" x="127.246094"/>
       <use xlink:href="#DejaVuSans-30" x="190.869141"/>
      </g>
     </g>
    </g>
    <g id="ytick_7">
     <g id="line2d_14">
      <g>
       <use xlink:href="#m1a26dcbebe" x="57.6" y="77.300658" style="fill: #888888; fill-opacity: 0.133333; stroke: #888888; stroke-opacity: 0.133333; stroke-width: 0.8"/>
      </g>
     </g>
     <g id="text_14">
      <!-- 2350 -->
      <g style="fill: #888888; opacity: 0.133333" transform="translate(25.15 81.099877) scale(0.1 -0.1)">
       <use xlink:href="#DejaVuSans-32"/>
       <use xlink:href="#DejaVuSans-33" x="63.623047"/>
       <use xlink:href="#DejaVuSans-35" x="127.246094"/>
       <use xlink:href="#DejaVuSans-30" x="190.869141"/>
      </g>
     </g>
    </g>
   </g>
   <g id="patch_3">
    <path d="M 57.6 307.584 
L 57.6 41.472 
" style="fill: none; stroke: #aaaaaa; stroke-opacity: 0.4; stroke-width: 0.8; stroke-linejoin: miter; stroke-linecap: square"/>
   </g>
   <g id="patch_4">
    <path d="M 414.72 307.584 
L 414.72 41.472 
" style="fill: none"/>
   </g>
   <g id="patch_5">
    <path d="M 57.6 307.584 
L 414.72 307.584 
" style="fill: none; stroke: #aaaaaa; stroke-opacity: 0.4; stroke-width: 0.8; stroke-linejoin: miter; stroke-linecap: square"/>
   </g>
   <g id="patch_6">
    <path d="M 57.6 41.472 
L 414.72 41.472 
" style="fill: none"/>
   </g>
  </g>
 </g>
 <defs>
  <clipPath id="p0b1b66dcb7">
   <rect x="57.6" y="41.472" width="357.12" height="266.112"/>
  </clipPath>
 </defs>
</svg>
